HIERARCHY
ROOT Hips
{
  OFFSET 1.07115 101.632 1.13042
  CHANNELS 6 Xposition Yposition Zposition Zrotation Xrotation Yrotation
  JOINT Spine
  {
    OFFSET 0 10.1816 0.1315
    CHANNELS 3 Zrotation Xrotation Yrotation
    JOINT Spine1
    {
      OFFSET 0 10.0835 -1.0008
      CHANNELS 3 Zrotation Xrotation Yrotation
      JOINT Spine2
      {
        OFFSET 0 9.1 -1.3734
        CHANNELS 3 Zrotation Xrotation Yrotation
        JOINT Neck
        {
          OFFSET 0 16.6717 -2.5162
          CHANNELS 3 Zrotation Xrotation Yrotation
          JOINT Head
          {
            OFFSET 0 9.6179 1.685
            CHANNELS 3 Zrotation Xrotation Yrotation
            End Site
            {
              OFFSET 0 0 0
            }
          }
        }
        JOINT LeftShoulder
        {
          OFFSET 4.5704 10.946 -2.628
          CHANNELS 3 Zrotation Xrotation Yrotation
          JOINT LeftArm
          {
            OFFSET 10.5924 -0.5246 -2.2321
            CHANNELS 3 Zrotation Xrotation Yrotation
            JOINT LeftForeArm
            {
              OFFSET 27.8415 -0.0001 0
              CHANNELS 3 Zrotation Xrotation Yrotation
              JOINT LeftHand
              {
                OFFSET 28.3288 0 0
                CHANNELS 3 Zrotation Xrotation Yrotation
                End Site
                {
                  OFFSET 0 0 0
                }
              }
            }
          }
        }
        JOINT RightShoulder
        {
          OFFSET -4.57 10.9462 -2.628
          CHANNELS 3 Zrotation Xrotation Yrotation
          JOINT RightArm
          {
            OFFSET -10.5928 -0.5248 -2.2321
            CHANNELS 3 Zrotation Xrotation Yrotation
            JOINT RightForeArm
            {
              OFFSET -27.8415 0 0
              CHANNELS 3 Zrotation Xrotation Yrotation
              JOINT RightHand
              {
                OFFSET -28.3288 0 0.0001
                CHANNELS 3 Zrotation Xrotation Yrotation
                End Site
                {
                  OFFSET 0 0 0
                }
              }
            }
          }
        }
      }
    }
  }
  JOINT LeftUpLeg
  {
    OFFSET 8.2078 -6.7517 -1.5996
    CHANNELS 3 Zrotation Xrotation Yrotation
    JOINT LeftLeg
    {
      OFFSET 0 -44.3705 0.2846
      CHANNELS 3 Zrotation Xrotation Yrotation
      JOINT LeftFoot
      {
        OFFSET 0 -44.4279 -2.9822
        CHANNELS 3 Zrotation Xrotation Yrotation
        JOINT LeftToeBase
        {
          OFFSET 0 -8.7287 10.7106
          CHANNELS 3 Zrotation Xrotation Yrotation
          End Site
          {
            OFFSET 0 0 0
          }
        }
      }
    }
  }
  JOINT RightUpLeg
  {
    OFFSET -8.2078 -6.7517 -1.5996
    CHANNELS 3 Zrotation Xrotation Yrotation
    JOINT RightLeg
    {
      OFFSET 0 -44.3705 0.2862
      CHANNELS 3 Zrotation Xrotation Yrotation
      JOINT RightFoot
      {
        OFFSET 0 -44.4277 -2.9838
        CHANNELS 3 Zrotation Xrotation Yrotation
        JOINT RightToeBase
        {
          OFFSET 0 -8.7287 10.7106
          CHANNELS 3 Zrotation Xrotation Yrotation
          End Site
          {
            OFFSET 0 0 0
          }
        }
      }
    }
  }
}
MOTION
Frames:	6
Frame Time:	0.0333333
1.07115 101.632 1.13042 3.37836 1.88263 33.2124 -0.796124 2.16428 3.40022 -3.06702 4.69962 6.91479 -3.07177 4.72904 6.89361 2.73241 1.73243 10.22 -22.8135 6.95719 60.1807 -10.1864 0.24594 1.04765 -66.87 7.188 8.47454 -0.000219936 3.69388e-06 -45.3795 -19.8326 18.7904 23.5752 11.4323 1.16569 -4.70261 53.6763 26.6818 5.86124 -2.24972e-06 -2.66341e-06 39.2575 -9.68828 2.3557 0.486498 -0.685996 -21.2785 -0.327127 1.28233 26.3631 0.419831 0.17545 1.58773 -0.112903 -3.43927 -3.22524 -0.0746018 -7.15258 -10.9415 -13.1429 1.07399 26.4002 -9.30343 2.05217 -14.597 -4.41935 1.10921e-06 -0.86281 3.06186e-07 
1.23924 101.684 -0.198528 3.52425 2.14327 33.2833 -0.967324 2.19408 3.57484 -3.13566 4.69111 7.19136 -3.14 4.72413 7.16876 2.24146 2.09706 10.2926 -22.226 6.41256 59.8848 -10.2457 0.332062 0.803207 -66.9976 7.07283 9.38103 -0.000203822 -2.5807e-06 -45.7326 -20.3449 17.9177 23.0396 11.271 1.07891 -4.73145 54.0174 25.8761 5.81198 1.32291e-05 7.81871e-06 38.7344 -9.04956 1.811 0.899789 0.0141359 -19.8919 -0.20009 2.31033 28.8234 0.601241 1.1262 -0.47145 -0.139649 -3.87275 -5.52714 -0.222685 -7.98723 -11.9255 -13.4659 0.800189 26.6214 -9.1956 2.47565 -13.779 -4.72553 -1.37654e-06 -0.458716 6.1211e-06 
1.47225 101.724 -1.53242 3.67299 2.34395 33.3905 -1.14595 2.20072 3.70436 -3.2304 4.66594 7.37793 -3.23476 4.70398 7.35278 1.89169 2.38867 10.3473 -21.7495 5.97326 59.6964 -10.2877 0.398421 0.611969 -67.0607 7.01755 10.2039 -0.000187595 3.24336e-06 -45.9774 -21.0006 17.2866 22.7738 11.1606 1.01937 -4.75668 54.3965 25.1582 5.75918 -2.31819e-06 8.8242e-06 38.3985 -8.57153 1.60823 1.23101 0.810719 -18.2558 0.0265032 3.32683 30.7224 0.423118 1.92645 -2.10956 -0.121929 -3.96943 -6.95416 -0.322673 -8.82061 -12.7759 -13.8133 0.507236 26.7599 -9.05421 2.93686 -12.9386 -4.98254 -1.31401e-06 -0.183318 -2.30147e-06 
1.77406 101.762 -2.87642 3.82363 2.4766 33.5501 -1.31874 2.17345 3.78049 -3.34573 4.61271 7.4575 -3.35068 4.65737 7.4284 1.69443 2.60204 10.3774 -21.3972 5.67499 59.5989 -10.3126 0.442365 0.48324 -67.0517 7.01875 10.9494 -0.00019719 -4.75159e-06 -46.1064 -21.7567 16.8434 22.766 11.0947 0.983808 -4.78303 54.7526 24.5605 5.702 -1.13376e-05 1.53195e-06 38.259 -8.27396 1.63442 1.43604 1.72784 -16.4086 0.37123 4.28558 32.0575 -0.187976 2.63468 -3.28838 -0.0776361 -3.81354 -7.69687 -0.364601 -9.6478 -13.4549 -14.1716 0.202564 26.7667 -8.88301 3.43809 -12.055 -5.1755 -5.6832e-07 -0.0140681 1.38378e-06 
2.16475 101.761 -4.22241 3.98246 2.37969 33.8226 -1.49402 2.10206 3.80139 -3.4643 4.5187 7.42533 -3.47062 4.57095 7.39135 1.63984 2.73918 10.3812 -21.1735 5.53926 59.5726 -10.323 0.463134 0.421566 -66.9855 7.04877 11.6287 -0.000211621 -3.69006e-07 -46.1212 -22.5167 16.4723 22.9508 11.0713 0.971477 -4.81612 54.9902 24.1385 5.63994 -1.90928e-05 -6.8541e-07 38.3147 -8.11434 1.78235 1.45723 3.02997 -13.7203 1.19492 4.8962 31.2889 -2.0107 2.87202 -2.93691 -0.0905772 -4.14693 -10.4605 -0.58166 -10.3875 -13.8344 -14.4988 -0.131701 26.7754 -8.69143 4.03174 -11.2403 -5.06548 1.58149e-06 -0.0105952 -3.39999e-06 
2.6726 101.739 -5.60966 4.09868 2.20553 33.9531 -1.62774 1.98561 3.77884 -3.56792 4.37853 7.30494 -3.5763 4.43876 7.26567 1.68626 2.81175 10.3655 -21.0658 5.55359 59.5927 -10.3225 0.463527 0.420335 -66.9158 7.04375 12.2403 -0.000195614 -1.52003e-06 -46.0292 -23.1215 16.0327 23.1974 11.0797 0.976744 -4.85993 55.0178 23.9529 5.5823 1.61658e-05 -2.27136e-06 38.5269 -8.01094 1.85333 1.28697 4.27783 -10.815 2.11772 5.25843 29.831 -4.70612 2.77643 -2.41408 -0.0982697 -4.48869 -13.1458 -0.823317 -11.1257 -14.1318 -14.8295 -0.477785 26.7027 -8.48306 4.70478 -10.3596 -4.88061 5.35197e-07 -0.0128985 -3.82498e-06 
